<?xml version="1.0" encoding="UTF-8"?>
<svg version="1.1" xmlns="http://www.w3.org/2000/svg" width="512" height="512">
<path d="M0 0 C8.050584 5.11341441 13.93662511 11.86093997 16.61635399 21.23662663 C20.52386469 39.2600833 14.68445335 58.87573437 10.98415613 76.5148387 C10.09267509 80.78771299 9.22555291 85.06553755 8.35543823 89.34280396 C6.8563815 96.69574146 5.34284936 104.04557057 3.81896973 111.3934021 C1.62130866 121.99074462 -0.55323577 132.59272622 -2.72134399 143.19614995 C-5.35538315 156.07767983 -7.99344364 168.95837421 -10.6439209 181.83653259 C-10.84763526 182.82635921 -11.05134962 183.81618582 -11.26123714 184.83600718 C-11.56648485 186.31914814 -11.56648485 186.31914814 -11.87789917 187.83225155 C-16.85967522 212.03818317 -21.79202837 236.25382682 -26.69140625 260.4765625 C-27.03798285 262.1897404 -27.38456207 263.90291776 -27.73114395 265.61609459 C-29.07948424 272.28151712 -30.42744924 278.94701547 -31.77477455 285.61264324 C-33.9886402 296.56529743 -36.20506407 307.51743012 -38.42431641 318.46899414 C-38.57321438 319.20388821 -38.72211235 319.93878227 -38.87552238 320.69594586 C-40.43572186 328.39601669 -41.99786244 336.095685 -43.56539917 343.79426575 C-44.08595325 346.35160602 -44.60647229 348.90895342 -45.12695312 351.46630859 C-45.37350206 352.67748572 -45.620051 353.88866285 -45.87407112 355.13654232 C-47.14393056 361.38605789 -48.39866044 367.63810024 -49.62513351 373.89627743 C-50.25521208 377.10920262 -50.89338446 380.32048937 -51.53266144 383.53159523 C-51.92455579 385.51943141 -52.30326961 387.50985312 -52.68109131 389.50041199 C-55.64605362 404.34600597 -61.25009951 417.38875584 -73.93359375 426.3125 C-82.81027149 431.26064807 -93.38532928 432.653564 -103.265625 430.203125 C-115.85490876 426.00055297 -124.96977242 418.56900662 -134.90234375 410.03320312 C-137.84646549 407.5391923 -140.88147026 405.17208045 -143.93359375 402.8125 C-149.17617181 398.73527561 -154.31882618 394.5487835 -159.43359375 390.3125 C-165.11779022 385.60546366 -170.85150894 380.97879445 -176.67333984 376.44335938 C-182.0452671 372.24988027 -187.33033524 367.95247241 -192.60571289 363.63842773 C-195.67205846 361.13390279 -198.73608878 358.64976251 -201.93359375 356.3125 C-204.93569814 357.66686689 -207.0977455 359.19934072 -209.47265625 361.47265625 C-210.13015869 362.09664307 -210.78766113 362.72062988 -211.46508789 363.36352539 C-212.15594482 364.02731201 -212.84680176 364.69109863 -213.55859375 365.375 C-215.00710128 366.75074922 -216.45631732 368.12575286 -217.90625 369.5 C-218.95256592 370.49386719 -218.95256592 370.49386719 -220.02001953 371.5078125 C-222.31162273 373.66901827 -224.64358339 375.78035334 -226.99609375 377.875 C-231.20089938 381.62599862 -235.32093058 385.46126509 -239.43359375 389.3125 C-241.35558273 391.10801094 -243.27829568 392.90273995 -245.20166016 394.69677734 C-246.70047918 396.09502717 -248.19801443 397.49465286 -249.6953125 398.89453125 C-261.97750209 410.18781668 -274.17076813 419.77251004 -291.55078125 419.45703125 C-301.9885689 418.82391954 -312.14830037 414.35874151 -319.20376587 406.49267578 C-325.46001902 398.60765337 -329.29139749 389.58269918 -332.47265625 380.125 C-332.87208435 378.97245728 -333.27151245 377.81991455 -333.68304443 376.63244629 C-334.76227094 373.5116323 -335.8304303 370.38730358 -336.89385223 367.26107788 C-338.02072102 363.95785169 -339.16245868 360.65977592 -340.30322266 357.36132812 C-341.97206457 352.53262798 -343.63692354 347.70259196 -345.29678154 342.8707962 C-348.41043739 333.80923189 -351.56113509 324.76097834 -354.73046875 315.71875 C-354.96628536 315.0459198 -355.20210197 314.3730896 -355.44506454 313.67987061 C-356.61300345 310.34809144 -357.78153139 307.01651928 -358.95037842 303.68505859 C-360.27409007 299.91171691 -361.59558008 296.13759985 -362.91650391 292.36328125 C-363.33108856 291.17871338 -363.74567322 289.99414551 -364.17282104 288.77368164 C-364.97470573 286.48138071 -365.7760934 284.18890585 -366.57693481 281.89624023 C-368.39951941 276.68091433 -370.2307021 271.46908691 -372.08691406 266.265625 C-372.58295639 264.86866394 -372.58295639 264.86866394 -373.08901978 263.44348145 C-373.70049003 261.72293119 -374.31561587 260.00367378 -374.93515015 258.28601074 C-376.03777353 255.17575816 -376.93359375 252.63873729 -376.93359375 249.3125 C-377.88076263 249.08125931 -378.82793152 248.85001862 -379.80380249 248.61177063 C-390.20803034 246.05242062 -400.53561085 243.26225134 -410.84765625 240.35546875 C-412.07369631 240.0100022 -412.07369631 240.0100022 -413.32450485 239.65755653 C-417.6404729 238.44035713 -421.95535617 237.2193875 -426.26953125 235.99584961 C-429.79703565 234.99627182 -433.32666135 234.00477986 -436.85839844 233.02026367 C-441.17932055 231.81570424 -445.49606597 230.59713114 -449.81031418 229.36889076 C-451.43296219 228.9093262 -453.05693653 228.45441366 -454.68233109 228.00465965 C-469.78954276 223.81696846 -485.16380104 219.10185712 -493.93359375 205.125 C-495.98555003 197.30191667 -496.30319473 189.25942234 -492.19921875 182.09375 C-485.67496022 172.91146021 -477.3801365 168.70027319 -467.12890625 164.6953125 C-466.26359283 164.35337357 -465.39827942 164.01143463 -464.50674438 163.65913391 C-453.14129277 159.18513261 -441.72389213 154.84475279 -430.30859375 150.5 C-427.88602221 149.57653536 -425.46349706 148.65294903 -423.04101562 147.72924805 C-406.14063676 141.2870389 -389.2328767 134.8642449 -372.32400513 128.44436646 C-355.52100959 122.06429842 -338.73182156 115.6488277 -321.94921875 109.21533203 C-306.94849342 103.46512443 -291.94239783 97.72908699 -276.93359375 92 C-275.2114415 91.34260834 -275.2114415 91.34260834 -273.45449829 90.67193604 C-267.615553 88.44309545 -261.77654297 86.21442452 -255.9375 83.98583984 C-245.57896807 80.03220858 -235.22102235 76.07704201 -224.86303711 72.12197876 C-219.13658045 69.93542177 -213.41008513 67.74896605 -207.68359375 65.5625 C-205.3919269 64.68750048 -203.10026023 63.81250048 -200.80859375 62.9375 C-187.05859378 57.68750001 -187.05859378 57.68750001 -183.62117004 56.37503052 C-181.32924783 55.49993202 -179.03732685 54.62483029 -176.7454071 53.74972534 C-171.02016039 51.56370588 -165.29489234 49.37774233 -159.56958008 47.19189453 C-148.04851542 42.79323588 -136.52781761 38.39362039 -125.0078125 33.9921875 C-114.72800192 30.06467899 -104.44731491 26.13947382 -94.1656189 22.21690369 C-88.36850543 20.00520849 -82.5718 17.79245496 -76.77587891 15.57763672 C-70.93651888 13.34634481 -65.09604949 11.11798025 -59.25479126 8.8916626 C-57.06297405 8.05573132 -54.87153893 7.21879743 -52.68051147 6.38079834 C-49.66173518 5.22640477 -46.64159291 4.07565795 -43.62109375 2.92578125 C-42.73831253 2.58723618 -41.85553131 2.2486911 -40.94599915 1.89988708 C-28.33527124 -2.88808816 -12.75788342 -6.39003552 0 0 Z M-23.62890625 28.78515625 C-24.78938477 29.17203613 -25.94986328 29.55891602 -27.14550781 29.95751953 C-33.28536957 32.12868052 -39.36446249 34.4529191 -45.43041992 36.82159424 C-48.79517508 38.13514754 -52.16403781 39.43802438 -55.53265381 40.74163818 C-57.38003829 41.45655674 -59.22724277 42.17194057 -61.07427979 42.88775635 C-72.84449975 47.44671644 -84.63992074 51.93965192 -96.43359375 56.4375 C-98.78070013 57.33303731 -101.12778657 58.22862691 -103.47485352 59.12426758 C-107.04600921 60.48700935 -110.61718102 61.84970874 -114.18843079 63.21220398 C-122.43375323 66.35801986 -130.67808603 69.50641797 -138.921875 72.65625 C-159.94952491 80.68992216 -180.9803733 88.714713 -202.0262146 96.70062256 C-203.04752472 97.08816711 -204.06883484 97.47571167 -205.12109375 97.875 C-206.14071198 98.26190002 -207.1603302 98.64880005 -208.21084595 99.04742432 C-224.13544425 105.09185485 -240.03932736 111.18879146 -255.93359375 117.3125 C-272.85581989 123.83225865 -289.79096324 130.3162778 -306.74609375 136.75 C-307.76740387 137.13754456 -308.78871399 137.52508911 -309.8409729 137.92437744 C-310.86516327 138.31300964 -311.88935364 138.70164185 -312.94458008 139.10205078 C-328.3437416 144.94562095 -343.73482641 150.81006383 -359.12109375 156.6875 C-360.81460464 157.33439285 -360.81460464 157.33439285 -362.54232788 157.99435425 C-367.12909558 159.74649173 -371.71582238 161.49873616 -376.30247498 163.25117493 C-384.28950002 166.30274669 -392.27708552 169.35284691 -400.26504707 172.40196609 C-402.16839929 173.12850362 -404.07174227 173.85506533 -405.9750824 174.58163452 C-415.80388613 178.33360562 -415.80388613 178.33360562 -420.59506226 180.16229248 C-437.77222333 186.71679734 -437.77222333 186.71679734 -454.93359375 193.3125 C-454.93359375 193.9725 -454.93359375 194.6325 -454.93359375 195.3125 C-444.08766547 198.45107341 -433.23929961 201.5810592 -422.38774681 204.70013428 C-417.34890544 206.14874579 -412.31094833 207.6002911 -407.27490234 209.05859375 C-402.41396873 210.46607089 -397.55085773 211.86577225 -392.68614578 213.26013184 C-390.83143242 213.79321509 -388.97751785 214.32908569 -387.12443161 214.86779785 C-384.52691469 215.62240613 -381.92672314 216.36701472 -379.32568359 217.109375 C-378.56179321 217.33379272 -377.79790283 217.55821045 -377.01086426 217.78942871 C-369.40415849 219.93770358 -364.50126612 219.55957688 -357.46484375 215.76171875 C-356.75589966 215.39190384 -356.04695557 215.02208893 -355.31652832 214.6410675 C-353.01626248 213.43835788 -350.72514441 212.21921941 -348.43359375 211 C-346.84446909 210.16594618 -345.25462041 209.33327044 -343.6640625 208.50195312 C-341.28738593 207.25955803 -338.91117749 206.01636234 -336.53735352 204.76852417 C-330.37757387 201.53128258 -324.17296783 198.39365818 -317.93359375 195.3125 C-310.64760663 191.69868296 -303.43574791 187.9665048 -296.25390625 184.15039062 C-289.86377824 180.76894789 -283.40795538 177.52925052 -276.93359375 174.3125 C-269.84568032 170.79079733 -262.79380168 167.22132316 -255.80859375 163.5 C-247.58946918 159.12414384 -239.26981966 154.95903448 -230.93359375 150.8125 C-221.89674611 146.31745094 -212.89977795 141.76707055 -203.9921875 137.01953125 C-196.24927025 132.91076781 -188.39458918 129.03013811 -180.54589844 125.12841797 C-173.37793914 121.55704687 -166.27267197 117.88889053 -159.20410156 114.12548828 C-151.31358071 109.94428746 -143.31312629 105.98733013 -135.31616211 102.01464844 C-128.00150332 98.37230475 -120.76393152 94.62161685 -113.59375 90.703125 C-108.63444754 88.11059684 -104.42364278 87.81425925 -98.93359375 88.3125 C-94.72879146 89.66121017 -93.24012127 90.90917431 -90.55859375 94.4375 C-88.43119923 98.72834657 -87.94626948 102.6227097 -88.93359375 107.3125 C-92.20278376 115.23285579 -99.57994236 121.14546475 -105.59375 127.01171875 C-108.6936144 130.04473509 -111.56102527 133.21424074 -114.36328125 136.5234375 C-116.76306462 139.25751906 -119.37769053 141.76513272 -121.96875 144.31640625 C-123.85590119 146.23357177 -125.6204475 148.20825322 -127.37109375 150.25 C-129.94024646 153.24051716 -132.62676631 156.04366684 -135.43359375 158.8125 C-138.21980516 161.5610599 -140.88667767 164.34109791 -143.43359375 167.3125 C-146.68524003 171.10608733 -150.19072469 174.58642647 -153.74609375 178.09375 C-155.73079717 180.10680632 -157.59456291 182.16696403 -159.43359375 184.3125 C-162.68524003 188.10608733 -166.19072469 191.58642647 -169.74609375 195.09375 C-171.73079717 197.10680632 -173.59456291 199.16696403 -175.43359375 201.3125 C-178.68524003 205.10608733 -182.19072469 208.58642647 -185.74609375 212.09375 C-187.73079717 214.10680632 -189.59456291 216.16696403 -191.43359375 218.3125 C-194.68524003 222.10608733 -198.19072469 225.58642647 -201.74609375 229.09375 C-203.73079717 231.10680632 -205.59456291 233.16696403 -207.43359375 235.3125 C-210.68524003 239.10608733 -214.19072469 242.58642647 -217.74609375 246.09375 C-219.73079717 248.10680632 -221.59456291 250.16696403 -223.43359375 252.3125 C-225.98050983 255.28390209 -228.64738234 258.0639401 -231.43359375 260.8125 C-237.33912653 266.64772882 -242.63032783 272.93595407 -247.93359375 279.3125 C-247.12019531 279.94414062 -246.30679688 280.57578125 -245.46875 281.2265625 C-238.71085647 286.49515722 -232.0327262 291.84612729 -225.43359375 297.3125 C-220.31883015 301.54892456 -215.1747353 305.73336674 -209.93359375 309.8125 C-204.6924499 313.89163505 -199.54842866 318.07616072 -194.43359375 322.3125 C-189.29613995 326.56678323 -184.13099114 330.77291321 -178.87109375 334.875 C-170.44152273 341.44905066 -162.17358267 348.21899708 -153.89257812 354.97851562 C-146.41524933 361.07938505 -138.91544955 367.14037202 -131.30126953 373.06982422 C-127.27954834 376.21631677 -123.33557188 379.44733783 -119.40942383 382.7121582 C-106.97910182 393.90585725 -106.97910182 393.90585725 -91.93359375 400.3125 C-84.13616489 393.77951907 -83.27279907 383.8844227 -81.38769531 374.32421875 C-81.15060632 373.14623624 -80.91351732 371.96825373 -80.66924381 370.75457478 C-80.01892979 367.51791597 -79.37370456 364.28031942 -78.73061204 361.04222322 C-78.03907744 357.56709692 -77.34073477 354.09333882 -76.64311218 350.61943054 C-75.44390021 344.64349178 -74.24856017 338.66678988 -73.05587769 332.68954468 C-71.16906204 323.23427332 -69.27405568 313.78065371 -67.37719727 304.32739258 C-67.13932115 303.14182587 -67.13932115 303.14182587 -66.89663947 301.93230832 C-66.25377973 298.72833412 -65.61090584 295.52436277 -64.96794611 292.32040864 C-63.99609594 287.47739489 -63.02483022 282.63426437 -62.05401593 277.79104286 C-56.51358152 250.15181993 -50.91376489 222.52505008 -45.27920532 194.90484619 C-43.87697803 188.03058062 -42.47766804 181.15572322 -41.07885742 174.28076172 C-37.19739079 155.20770273 -33.31169697 136.13558662 -29.39282513 117.07017231 C-27.56393361 108.17123926 -25.74201215 99.27089766 -23.925107 90.3695097 C-22.66491437 84.19810116 -21.39569483 78.02864867 -20.11912537 71.8606081 C-19.34501102 68.10894736 -18.57988518 64.35549597 -17.81731796 60.60147285 C-17.46622712 58.88232145 -17.11146752 57.16391425 -16.75262833 55.44636345 C-14.92756572 46.70155837 -13.34084078 38.30393164 -13.93359375 29.3125 C-17.81925795 27.13488788 -19.36410115 27.36184999 -23.62890625 28.78515625 Z M-186.1484375 161.8046875 C-187.21707031 162.33964844 -188.28570312 162.87460938 -189.38671875 163.42578125 C-191.11148438 164.29783203 -191.11148438 164.29783203 -192.87109375 165.1875 C-194.06503321 165.78790153 -195.25904422 166.38816082 -196.453125 166.98828125 C-203.90352437 170.74093476 -211.30353588 174.58237413 -218.66772461 178.50146484 C-225.36718637 182.05163131 -232.14449192 185.43752268 -238.93359375 188.8125 C-246.43767755 192.54293187 -253.91205676 196.31039829 -261.30859375 200.25 C-269.11603173 204.40756363 -277.01375509 208.37464516 -284.93359375 212.3125 C-293.54264527 216.59306022 -302.10614049 220.94005405 -310.59106445 225.46240234 C-322.25094608 231.64418832 -334.11392896 237.444004 -345.93359375 243.3125 C-344.56683949 250.04861538 -342.67315792 256.39794683 -340.3984375 262.87890625 C-340.04749527 263.89120804 -339.69655304 264.90350983 -339.3349762 265.94648743 C-338.1853716 269.25776292 -337.02840167 272.56640981 -335.87109375 275.875 C-335.06871699 278.1803992 -334.26663764 280.48590193 -333.46484375 282.79150391 C-327.12354684 301.00223824 -320.70207071 319.18486807 -314.24194336 337.35375977 C-313.72747902 338.8009565 -313.72747902 338.8009565 -313.20262146 340.27738953 C-312.56649857 342.06595268 -311.92979493 343.85430944 -311.29237366 345.64241028 C-309.79448817 349.85181715 -308.32733014 354.06708308 -306.93359375 358.3125 C-304.17072295 355.5496292 -303.79929521 352.4384658 -302.93408203 348.74511719 C-302.74514374 347.96442368 -302.55620544 347.18373016 -302.36154175 346.37937927 C-301.95144533 344.68151309 -301.54455801 342.98286937 -301.14047623 341.28356171 C-300.49965907 338.5915329 -299.84923906 335.90199483 -299.1960144 333.21295166 C-297.34021876 325.56604276 -295.50151784 317.91506225 -293.67041016 310.26220703 C-292.54998833 305.58253382 -291.41790872 300.90580262 -290.27886581 296.23062897 C-289.84772579 294.45040474 -289.42115495 292.66906733 -288.99930191 290.88661957 C-288.40770054 288.38746744 -287.80140539 285.89229617 -287.19189453 283.39746094 C-287.02240295 282.66476486 -286.85291138 281.93206879 -286.67828369 281.1771698 C-283.80129012 269.61299165 -274.05928309 261.33955913 -265.828125 253.23828125 C-263.96548676 251.34491908 -262.2252482 249.39035932 -260.49609375 247.375 C-257.92694104 244.38448284 -255.24042119 241.58133316 -252.43359375 238.8125 C-249.64738234 236.0639401 -246.98050983 233.28390209 -244.43359375 230.3125 C-241.18194747 226.51891267 -237.67646281 223.03857353 -234.12109375 219.53125 C-232.13639033 217.51819368 -230.27262459 215.45803597 -228.43359375 213.3125 C-225.18194747 209.51891267 -221.67646281 206.03857353 -218.12109375 202.53125 C-216.13639033 200.51819368 -214.27262459 198.45803597 -212.43359375 196.3125 C-209.18194747 192.51891267 -205.67646281 189.03857353 -202.12109375 185.53125 C-199.53337663 182.90656549 -197.14776847 180.14791833 -194.75390625 177.34765625 C-192.69564581 175.04646808 -190.51870748 172.90540794 -188.30859375 170.75 C-184.6758631 167.17315752 -181.73753978 163.56364398 -178.93359375 159.3125 C-181.78620591 159.3125 -183.60050771 160.52525771 -186.1484375 161.8046875 Z M-261.93359375 308.3125 C-264.30602366 317.79393121 -266.67092301 327.27720525 -269.02613163 336.76292992 C-270.11989815 341.16711154 -271.21628306 345.57060709 -272.31860352 349.97265625 C-273.3816024 354.2180818 -274.43778617 358.46514881 -275.48919487 362.71345901 C-275.89224626 364.33683694 -276.2977815 365.95960019 -276.7057972 367.58173752 C-277.27530837 369.84769102 -277.83607907 372.11563703 -278.39477539 374.38427734 C-278.56668396 375.0596907 -278.73859253 375.73510406 -278.91571045 376.4309845 C-279.90856524 379.93959004 -279.90856524 379.93959004 -278.93359375 383.3125 C-278.23234375 382.59964844 -277.53109375 381.88679688 -276.80859375 381.15234375 C-272.09731417 376.38680599 -267.37453621 371.72668649 -262.27734375 367.37109375 C-259.01375273 364.50457297 -255.85286475 361.53255289 -252.68359375 358.5625 C-247.90569111 354.08910076 -243.12519379 349.61926072 -238.30859375 345.1875 C-237.38820313 344.33929688 -236.4678125 343.49109375 -235.51953125 342.6171875 C-233.0558731 340.42148009 -230.5309754 338.34727191 -227.93359375 336.3125 C-229.24394353 332.38145067 -231.73885501 330.89605406 -234.93359375 328.5 C-241.57939258 323.41745438 -248.03211122 318.1339265 -254.421875 312.7331543 C-255.11152344 312.15734619 -255.80117187 311.58153809 -256.51171875 310.98828125 C-257.1243457 310.47177002 -257.73697266 309.95525879 -258.36816406 309.4230957 C-259.885563 308.11962527 -259.885563 308.11962527 -261.93359375 308.3125 Z " fill="#000000" transform="translate(494.93359375,41.6875)"/>
</svg>
