<?xml version="1.0" encoding="UTF-8"?>
<svg version="1.1" xmlns="http://www.w3.org/2000/svg" width="512" height="512">
<path d="M0 0 C1.288564 -0.00637985 2.57712799 -0.0127597 3.90473938 -0.01933289 C5.29480959 -0.02086206 6.68488031 -0.02197576 8.07495117 -0.02270508 C9.52072685 -0.02592427 10.9665022 -0.02928883 12.41227722 -0.03279114 C15.43566645 -0.03875925 18.45902718 -0.04063345 21.48242188 -0.04003906 C25.33195655 -0.03993761 29.1813061 -0.05358309 33.030797 -0.07081127 C36.01560789 -0.08200073 39.000375 -0.08395615 41.9852047 -0.08342934 C43.40319137 -0.08459927 44.82117956 -0.08896471 46.23914528 -0.0967617 C59.29393387 -0.16182607 71.66601226 0.49457786 81.88256836 9.55859375 C87.53101344 15.85736598 90.75103129 24.10965881 93.93041992 31.83276367 C101.23216125 49.0483314 109.65150038 65.74790293 120.30541992 81.14526367 C120.90435059 82.01586426 120.90435059 82.01586426 121.51538086 82.90405273 C130.19806143 97.29012125 130.19806143 97.29012125 142.30541992 107.14526367 C142.63541992 92.62526367 142.96541992 78.10526367 143.30541992 63.14526367 C140.33541992 62.15526367 140.33541992 62.15526367 137.30541992 61.14526367 C130.2751353 56.17903058 124.08660847 49.782106 122.30541992 41.14526367 C121.31734338 29.69309944 122.13165839 21.00017634 129.61791992 11.89526367 C136.94063032 4.04056149 144.4367178 0.56821794 155.29788971 0.05024147 C157.50308011 0.00918565 159.70629276 -0.0012963 161.91186523 0 C162.74377884 -0.00335861 163.57569244 -0.00671722 164.43281555 -0.01017761 C167.16640746 -0.01962861 169.89993772 -0.02162787 172.63354492 -0.02270508 C174.54775009 -0.02592208 176.46195501 -0.02928648 178.37615967 -0.03279114 C182.38399831 -0.03876805 186.39181543 -0.04063255 190.3996582 -0.04003906 C195.51132481 -0.03993761 200.622852 -0.05357926 205.73448563 -0.07081127 C209.68783185 -0.08198275 213.64114493 -0.08395668 217.59450531 -0.08342934 C219.47777537 -0.08460211 221.36104648 -0.08898398 223.24430084 -0.0967617 C252.0168579 -0.20445444 252.0168579 -0.20445444 263.12182617 9.77807617 C270.67995169 17.92342447 272.46257728 27.3723037 272.43139648 38.18261719 C272.43419868 39.35694305 272.43419868 39.35694305 272.4370575 40.55499268 C272.44104436 42.24588761 272.44313475 43.93678787 272.44351959 45.62768745 C272.4469527 49.22550184 272.46832998 52.82313832 272.48875046 56.42088985 C272.52670437 63.11085971 272.55802935 69.8006326 272.5559082 76.49072266 C272.55512154 81.15334861 272.57845639 85.81531287 272.61779022 90.47776604 C272.62825103 92.25152551 272.62977363 94.02536132 272.62213898 95.79913521 C272.6125236 98.27925588 272.6336812 100.7573657 272.66186523 103.23730469 C272.65166855 103.96731186 272.64147186 104.69731903 272.63096619 105.44944763 C272.71012331 109.33658341 273.19381915 111.00661248 275.66204834 114.07310486 C278.76644196 116.5066623 280.35966637 117.22578925 284.30541992 117.14526367 C290.74066717 114.01802274 293.37984325 108.74824861 296.86791992 102.70776367 C298.11054438 100.61089658 299.35405226 98.5145528 300.59838867 96.41870117 C301.2202002 95.36263672 301.84201172 94.30657227 302.48266602 93.21850586 C305.15244436 88.71714371 307.91222797 84.27403393 310.68041992 79.83276367 C311.75248653 78.10517952 312.82409131 76.37730869 313.89526367 74.64916992 C314.44424316 73.76374512 314.99322266 72.87832031 315.55883789 71.96606445 C318.79517442 66.73924976 322.01962557 61.50512817 325.24291992 56.27026367 C325.91371582 55.18181152 326.58451172 54.09335938 327.27563477 52.97192383 C330.59178664 47.5840762 333.89042745 42.18679385 337.15307617 36.76635742 C355.05319299 7.03119899 355.05319299 7.03119899 367.43041992 1.83276367 C372.94565765 0.51390248 378.33878479 0.01915145 384 0 C385.288564 -0.00637985 386.57712799 -0.0127597 387.90473938 -0.01933289 C389.29480959 -0.02086206 390.68488031 -0.02197576 392.07495117 -0.02270508 C393.52072685 -0.02592427 394.9665022 -0.02928883 396.41227722 -0.03279114 C399.43566645 -0.03875925 402.45902718 -0.04063345 405.48242188 -0.04003906 C409.33195655 -0.03993761 413.1813061 -0.05358309 417.030797 -0.07081127 C420.01560789 -0.08200073 423.000375 -0.08395615 425.9852047 -0.08342934 C427.40319137 -0.08459927 428.82117956 -0.08896471 430.23914528 -0.0967617 C443.41795057 -0.16244417 456.35486249 0.45656301 466.30541992 10.14526367 C473.90063346 20.05124043 475.24491381 28.96844673 474.30541992 41.14526367 C472.44618715 49.40574752 466.18726203 56.3961732 461.30541992 63.14526367 C460.29872485 64.54617267 459.29222277 65.94722036 458.28588867 67.34838867 C455.53091721 71.17682428 452.76434207 74.99674098 449.99487305 78.81469727 C447.25976056 82.58772961 444.53292079 86.36672735 441.80541992 90.14526367 C440.72212821 91.64529373 439.63879483 93.1452937 438.55541992 94.64526367 C438.01916992 95.38776367 437.48291992 96.13026367 436.93041992 96.89526367 C432.05541992 103.64526367 432.05541992 103.64526367 430.42919922 105.89672852 C429.34964943 107.39163959 428.27038349 108.8867557 427.19140625 110.38208008 C424.42751719 114.21170072 421.65826932 118.03726004 418.87963867 121.85620117 C416.15459592 125.6035736 413.44589868 129.36218993 410.75073242 133.13110352 C409.82644387 134.41917455 408.89721654 135.70372506 407.96166992 136.98364258 C406.78993568 138.58882695 405.64057989 140.21027959 404.49291992 141.83276367 C403.55512695 143.13793945 403.55512695 143.13793945 402.59838867 144.46948242 C400.86153419 148.06387915 400.73830527 150.18392551 401.30541992 154.14526367 C402.7252923 156.99210592 404.56410676 159.43611054 406.49291992 161.95776367 C407.30224976 163.05809937 407.30224976 163.05809937 408.12792969 164.18066406 C409.26859403 165.73055304 410.41579929 167.27564681 411.5690918 168.81616211 C413.79484092 171.80177047 415.96708044 174.82401365 418.13867188 177.84912109 C419.76025242 180.10689623 421.38910736 182.35924253 423.02026367 184.61010742 C426.28675345 189.11838719 429.54663966 193.63140933 432.80541992 198.14526367 C433.88872354 199.64528513 434.97205688 201.14528513 436.05541992 202.64526367 C438.22208659 205.64526367 440.38875326 208.64526367 442.55541992 211.64526367 C443.36052002 212.75985962 443.36052002 212.75985962 444.18188477 213.89697266 C445.26073977 215.39098404 446.339193 216.88528564 447.41723633 218.37988281 C450.19079684 222.224036 452.9720157 226.0622777 455.76635742 229.89135742 C476.71964857 258.64529943 476.71964857 258.64529943 474.30541992 276.14526367 C471.80016539 284.50881302 466.81846633 291.58562171 459.30541992 296.14526367 C450.07237825 300.70428729 441.0293824 300.73451138 430.99291992 300.67651367 C429.33105239 300.67921521 427.66918641 300.6831031 426.00732422 300.68811035 C422.54110518 300.69397436 419.07530125 300.6855435 415.60913086 300.66674805 C411.19456427 300.64396004 406.78097082 300.65709993 402.36643982 300.6810379 C398.93974647 300.69558041 395.513279 300.6908515 392.08657837 300.68052673 C390.46009197 300.67788271 388.8335842 300.68104611 387.2071228 300.69044495 C374.28609429 300.74874905 363.69030587 299.45488792 354.03198242 290.14916992 C348.545537 284.30010282 343.81382814 277.76203018 338.9909668 271.3684082 C336.57292806 268.1791468 334.09911257 265.03547401 331.61791992 261.89526367 C330.72842134 260.76519358 329.83909699 259.63498633 328.94995117 258.50463867 C328.51505371 257.95227539 328.08015625 257.39991211 327.63208008 256.83081055 C325.35455786 253.9371754 323.08017985 251.04107044 320.80541992 248.14526367 C319.88876762 246.97858572 318.97210097 245.81191904 318.05541992 244.64526367 C312.55541992 237.64526367 312.55541992 237.64526367 311.17895508 235.89331055 C310.26728635 234.73306382 309.35550351 233.57290676 308.44360352 232.4128418 C306.07449834 229.39869583 303.70772187 226.3827615 301.34448242 223.36401367 C300.61261719 222.43008789 300.61261719 222.43008789 299.8659668 221.47729492 C298.94204299 220.29819216 298.01880999 219.1185476 297.09643555 217.93823242 C291.7646045 210.09364835 291.7646045 210.09364835 284.30541992 205.14526367 C280.5074738 205.22607104 278.70029824 205.84857818 275.65161133 208.13916016 C272.46055365 212.22776506 272.6231007 215.13684288 272.70385742 220.18041992 C272.69585114 221.05492294 272.68784485 221.92942596 272.67959595 222.83042908 C272.65656728 225.62334615 272.6659499 228.41480838 272.68041992 231.20776367 C272.70765506 250.65875531 271.7353271 266.4490697 257.68041992 281.39526367 C241.99103608 296.20375646 223.36258487 300.94279299 202.37182617 300.44995117 C181.96504856 299.52009989 165.38174506 288.82116399 149.30541992 277.14526367 C148.66185547 276.6818457 148.01829102 276.21842773 147.35522461 275.7409668 C142.97393576 272.58395927 138.62799527 269.38213571 134.30541992 266.14526367 C133.74226074 265.72390137 133.17910156 265.30253906 132.59887695 264.8684082 C124.24184752 258.59021742 116.22030791 251.97026735 108.30541992 245.14526367 C107.58870117 244.53038086 106.87198242 243.91549805 106.13354492 243.28198242 C96.29736918 234.76678069 86.83710509 225.86373035 77.640625 216.66577148 C76.11304576 215.14039654 74.5775841 213.62325695 73.04174805 212.10620117 C67.40315368 206.49876487 62.16852231 200.77147367 57.22509766 194.5324707 C55.41181014 192.27756477 53.52154125 190.14203856 51.55541992 188.02026367 C18.4651914 151.12957326 -6.27550543 106.02127446 -28.38208008 62.02026367 C-28.73454803 61.32077606 -29.08701599 60.62128845 -29.45016479 59.90060425 C-30.45700801 57.89857622 -31.4577311 55.89361748 -32.45629883 53.88745117 C-33.32194458 52.15277588 -33.32194458 52.15277588 -34.20507812 50.38305664 C-38.67214481 40.67280613 -39.47018745 30.31785832 -36.00708008 20.08276367 C-32.70178126 12.28179617 -27.37986045 6.84773422 -19.71411133 3.20385742 C-13.30237101 0.63668093 -6.88525523 0.02329229 0 0 Z M-13.69458008 26.14526367 C-16.04473388 29.39071416 -15.91656766 32.22418298 -15.69458008 36.14526367 C-14.82521518 38.80431239 -14.82521518 38.80431239 -13.49145508 41.39135742 C-13.01208496 42.38143799 -12.53271484 43.37151855 -12.03881836 44.39160156 C-11.51271973 45.44468506 -10.98662109 46.49776855 -10.44458008 47.58276367 C-9.90172363 48.6880542 -9.35886719 49.79334473 -8.79956055 50.93212891 C-7.11420806 54.34493119 -5.40830247 57.7466293 -3.69458008 61.14526367 C-3.1928125 62.14460938 -2.69104492 63.14395508 -2.17407227 64.17358398 C5.39600035 79.17664541 13.65763738 93.73938183 22.30541992 108.14526367 C22.97371826 109.25973877 22.97371826 109.25973877 23.65551758 110.39672852 C34.72558215 128.74153231 46.99218814 146.36243878 60.30541992 163.14526367 C61.46944336 164.61286133 61.46944336 164.61286133 62.65698242 166.11010742 C71.06816308 176.52467838 79.71429807 186.83423371 89.32495117 196.16479492 C91.28356848 198.12341223 93.0774637 200.15792768 94.86791992 202.27026367 C97.76231691 205.64483712 100.89327502 208.5024609 104.28198242 211.37182617 C106.33350964 213.16988285 108.22061533 215.06100628 110.11791992 217.02026367 C113.95872802 220.91337849 118.08414551 224.32843152 122.34838867 227.74682617 C124.8561541 229.78086577 127.30631952 231.86506651 129.7434082 233.98266602 C142.34846271 244.8776256 156.00999858 254.39411445 169.80541992 263.70776367 C170.78357666 264.37445068 171.7617334 265.0411377 172.76953125 265.72802734 C187.85229197 275.79044736 202.03183522 280.31512014 220.05151367 277.02416992 C230.33351659 274.24691823 240.63015554 268.77332661 246.32244873 259.48590088 C249.17032653 254.27461983 249.8827004 250.10714914 249.84448242 244.21948242 C249.85627533 243.39124466 249.86806824 242.5630069 249.88021851 241.70967102 C249.91522318 239.08384142 249.92461491 236.45880649 249.93041992 233.83276367 C250.12965445 202.21600212 250.12965445 202.21600212 259.05932617 192.17260742 C265.64615546 185.90513955 272.66548483 182.97867657 281.74291992 182.64526367 C291.30524741 183.00483415 298.93498572 185.78153763 305.87573242 192.43823242 C310.20078205 197.25697743 314.03622047 202.44110706 317.90307617 207.62963867 C321.153376 211.98080133 324.54551889 216.19944727 327.99291992 220.39526367 C332.72032183 226.16508228 337.32293675 232.00908621 341.84838867 237.93823242 C345.3520674 242.52561041 348.93132479 247.05349304 352.50463867 251.58666992 C354.41091467 254.00511969 356.30849337 256.43005208 358.19995117 258.86010742 C365.87055656 270.35870308 365.87055656 270.35870308 376.30541992 278.14526367 C378.47136788 278.24984439 380.64040253 278.29391527 382.80883789 278.30639648 C383.4644873 278.31136139 384.12013672 278.31632629 384.7956543 278.32144165 C386.96298271 278.3360372 389.13023795 278.34286073 391.29760742 278.34838867 C392.80591839 278.35414209 394.31422935 278.3598998 395.82254028 278.36566162 C398.98496847 278.37616406 402.14737129 278.38201173 405.30981445 278.38549805 C409.35732442 278.39098248 413.40449793 278.41501231 417.45190239 278.44347 C420.56776909 278.46211515 423.68355503 278.46730296 426.79947281 278.46883392 C428.29138148 278.47185655 429.78328886 278.47987196 431.27514267 278.4930191 C433.36475821 278.51012025 435.4535553 278.50819008 437.54321289 278.50170898 C438.73107391 278.50535461 439.91893494 278.50900024 441.14279175 278.51275635 C445.45789564 278.01134771 448.03265372 276.37414138 451.11791992 273.39526367 C452.87085814 270.07390704 452.69224871 267.88081623 452.30541992 264.14526367 C450.90269422 261.29068523 449.04601265 258.85347493 447.11791992 256.33276367 C446.30859009 255.23242798 446.30859009 255.23242798 445.48291016 254.10986328 C444.34224582 252.5599743 443.19504055 251.01488053 442.04174805 249.47436523 C439.81599892 246.48875688 437.64375941 243.4665137 435.47216797 240.44140625 C433.85058743 238.18363112 432.22173249 235.93128482 430.59057617 233.68041992 C427.3240864 229.17214015 424.06420018 224.65911802 420.80541992 220.14526367 C419.72211631 218.64524221 418.63878296 217.14524221 417.55541992 215.64526367 C415.38875326 212.64526367 413.22208659 209.64526367 411.05541992 206.64526367 C410.25031982 205.53066772 410.25031982 205.53066772 409.42895508 204.39355469 C408.35010008 202.8995433 407.27164684 201.40524171 406.19360352 199.91064453 C403.42004301 196.06649134 400.63882415 192.22824964 397.84448242 188.39916992 C377.2339055 160.11553039 377.2339055 160.11553039 378.55151367 146.62573242 C380.22501683 136.98457706 384.96546902 129.8921624 390.80541992 122.20776367 C392.06595393 120.5239295 393.32504261 118.83901248 394.58276367 117.15307617 C395.21037598 116.31292969 395.83798828 115.4727832 396.48461914 114.60717773 C399.17188477 110.97371211 401.77567562 107.28435459 404.36791992 103.58276367 C410.0590513 95.47122259 415.85052798 87.43532392 421.66430664 79.41137695 C424.91742973 74.9193376 428.16278628 70.42168117 431.40820312 65.92407227 C434.23501391 62.00764973 437.06709139 58.0951831 439.90698242 54.18823242 C440.49672852 53.37547852 441.08647461 52.56272461 441.6940918 51.7253418 C442.82133676 50.17205149 443.95015262 48.61989954 445.08081055 47.0690918 C450.06008901 40.65892867 450.06008901 40.65892867 452.80541992 33.20776367 C452.10131917 28.89514655 450.34449137 27.25669397 447.30541992 24.14526367 C444.43016833 22.70763788 441.94525276 23.00205585 438.73193359 22.98413086 C438.05692307 22.97916595 437.38191254 22.97420105 436.68644714 22.96908569 C434.44875068 22.9544567 432.21112514 22.9476603 429.97338867 22.94213867 C428.41880796 22.93638709 426.86422727 22.93062935 425.30964661 22.92486572 C422.04708526 22.91435313 418.78454856 22.90851241 415.52197266 22.9050293 C411.34552288 22.89954906 407.16939987 22.87553244 402.99305248 22.84705734 C399.78024858 22.82841247 396.56752301 22.82322435 393.35466957 22.82169342 C391.815313 22.81866968 390.27595772 22.81065052 388.73665428 22.79750824 C386.57988194 22.78041118 384.42390287 22.7823366 382.26708984 22.78881836 C381.04068283 22.78517273 379.81427582 22.7815271 378.55070496 22.777771 C375.00330095 23.17947531 373.1502223 24.03228169 370.30541992 26.14526367 C368.59266252 28.25461123 368.59266252 28.25461123 367.21166992 30.73120117 C366.66333496 31.65070557 366.115 32.57020996 365.55004883 33.51757812 C364.97432129 34.50846436 364.39859375 35.49935059 363.80541992 36.52026367 C362.55365103 38.62622913 361.30102929 40.73168786 360.04760742 42.83666992 C359.41951172 43.89901855 358.79141602 44.96136719 358.14428711 46.0559082 C355.46377718 50.55925029 352.70141524 55.00973484 349.93041992 59.45776367 C348.85577638 61.18927094 347.78156669 62.92104753 346.70776367 64.65307617 C346.15846191 65.53898437 345.60916016 66.42489258 345.04321289 67.33764648 C341.85000501 72.49666455 338.67199733 77.66503093 335.49291992 82.83276367 C334.82873047 83.91130615 334.16454102 84.98984863 333.48022461 86.10107422 C330.32299755 91.22985974 327.17068589 96.36139414 324.03590393 101.50392151 C322.59862893 103.86093542 321.15839791 106.21613636 319.71792603 108.57119751 C318.71189465 110.21871925 317.7101253 111.86884118 316.70849609 113.51904297 C303.74397333 134.70447756 303.74397333 134.70447756 291.62573242 138.67260742 C282.45762129 140.54018561 273.57545331 139.52503213 265.30541992 135.14526367 C259.73275086 131.35509818 256.2127795 127.18362588 253.30541992 121.14526367 C252.91354492 120.34088867 252.52166992 119.53651367 252.11791992 118.70776367 C250.20771204 112.6832619 250.16068997 106.33496581 250.17944336 100.06445312 C250.17664116 98.91894989 250.17664116 98.91894989 250.17378235 97.75030518 C250.16980737 96.10746405 250.16770621 94.46461751 250.16732025 92.82177162 C250.16297948 88.41585549 250.13189875 84.01008181 250.10620117 79.60424805 C250.07579345 74.01460241 250.0531093 68.42518547 250.05493164 62.83544922 C250.0557183 58.3001869 250.03238907 53.76560489 249.99304962 49.23052025 C249.98259379 47.50700119 249.98106256 45.78340361 249.98870087 44.05986977 C249.99831715 41.65179089 249.97715962 39.2457824 249.94897461 36.83789062 C249.9591713 36.12972702 249.96936798 35.42156342 249.97987366 34.69194031 C249.89852973 30.8132936 249.39825991 29.25744131 246.89019775 26.22697449 C242.5552518 22.73572515 239.18590724 22.99132813 233.80419922 22.98413086 C232.92436371 22.97916595 232.0445282 22.97420105 231.13803101 22.96908569 C228.21855902 22.95444474 225.29914138 22.94765856 222.37963867 22.94213867 C220.35423277 22.93638844 218.32882688 22.93063069 216.30342102 22.92486572 C212.05221299 22.91434998 207.8010239 22.90851119 203.54980469 22.9050293 C198.1021711 22.89954592 192.65478763 22.87552358 187.20723248 22.84705734 C183.02164479 22.82843321 178.83611734 22.82322546 174.65049171 22.82169342 C172.6422368 22.81866544 170.63398298 22.81063201 168.62576866 22.79750824 C165.81526047 22.78045392 163.00536316 22.78232662 160.19482422 22.78881836 C158.95012611 22.77499619 158.95012611 22.77499619 157.68028259 22.76089478 C153.05458047 22.79436523 150.08289508 23.17948844 146.30541992 26.14526367 C143.97692945 29.36079813 143.76084985 32.25547744 144.30541992 36.14526367 C146.13089928 39.07010234 148.17400403 41.57955573 151.30541992 43.14526367 C153.67944493 43.21642749 156.05542669 43.22935452 158.43041992 43.20776367 C159.71174805 43.19874023 160.99307617 43.1897168 162.31323242 43.18041992 C163.3006543 43.16881836 164.28807617 43.1572168 165.30541992 43.14526367 C165.24403282 51.74304072 165.16680138 60.34047121 165.06970501 68.93791199 C165.02510231 72.93067378 164.98582446 76.92333592 164.95898438 80.91625977 C164.93284989 84.7743988 164.89237723 88.63215223 164.84223366 92.49005127 C164.82563314 93.95708394 164.81407662 95.4241832 164.80780602 96.89129639 C164.76566243 105.85038721 164.33538093 112.93373074 159.74291992 120.83276367 C153.97841538 126.3016526 148.10837172 128.46958486 140.18041992 128.70776367 C131.45193349 128.32087941 127.01243919 126.20269583 121.05541992 119.89526367 C110.20282651 107.14393179 100.99231941 93.43463075 92.30541992 79.14526367 C91.9399707 78.55632324 91.57452148 77.96738281 91.19799805 77.3605957 C84.26479591 66.16678542 79.12174539 54.08203904 73.66821289 42.12573242 C71.91137014 38.28346508 70.14203091 34.45007921 68.30541992 30.64526367 C67.81041992 29.60370117 67.31541992 28.56213867 66.80541992 27.48901367 C65.07210367 24.78070703 64.27953697 24.25602922 61.30541992 23.14526367 C58.10607427 22.83499223 58.10607427 22.83499223 54.50488281 22.87060547 C53.49192894 22.86293907 53.49192894 22.86293907 52.45851135 22.8551178 C50.23160886 22.84124548 48.00501668 22.84217672 45.77807617 22.84448242 C44.2263528 22.8405942 42.67463048 22.83625927 41.12290955 22.83149719 C37.87226917 22.82404008 34.62173741 22.82432255 31.37109375 22.82958984 C27.21036561 22.83538402 23.05008268 22.81845259 18.88942814 22.79524517 C15.68518993 22.78049632 12.48105867 22.77963768 9.27679253 22.7827549 C7.7430273 22.78224227 6.209256 22.77701545 4.67552376 22.76694298 C2.52850739 22.75457303 0.38235464 22.76137262 -1.76464844 22.77294922 C-2.98502304 22.77231979 -4.20539764 22.77169037 -5.4627533 22.77104187 C-8.9899587 23.17946635 -10.86120205 24.04880415 -13.69458008 26.14526367 Z " fill="#000000" transform="translate(37.694580078125,105.854736328125)"/>
</svg>
